<svg xmlns="http://www.w3.org/2000/svg" xmlns:xlink="http://www.w3.org/1999/xlink" width="1919.5" height="158.098" viewBox="0 0 1919.5 158.098">
  <defs>
    <clipPath id="clip-path">
      <rect id="Rectangle_30" data-name="Rectangle 30" width="365.939" height="158.098" fill="none"/>
    </clipPath>
  </defs>
  <g id="Group_47" data-name="Group 47" transform="translate(-0.5 -1429)">
    <g id="Group_46" data-name="Group 46" transform="translate(1554.061 1428.997)">
      <g id="Group_45" data-name="Group 45" transform="translate(0 0.003)" clip-path="url(#clip-path)">
        <path id="Path_54" data-name="Path 54" d="M1342.748,98.353c-1.493.416-4.321,1.219-6.5,1.923h0a3.451,3.451,0,0,0-2.355,2.764,3.634,3.634,0,0,0,.377,2.34,3.742,3.742,0,0,0,3.234,1.688q.241.016.493.016a12.152,12.152,0,0,0,4.42-.958c3.248-1.313,4.7-2.728,4.7-4.588a3.085,3.085,0,0,0-.1-.759,3.353,3.353,0,0,0-1.587-2.086,3.508,3.508,0,0,0-2.683-.34m2.316.974a2.627,2.627,0,0,1,1.244,1.633,2.35,2.35,0,0,1,.077.578c0,1.022-.482,2.39-4.239,3.909-3.359,1.358-6.333,1.183-7.234-.425a2.922,2.922,0,0,1-.291-1.878,2.714,2.714,0,0,1,1.855-2.171c2.163-.7,4.981-1.5,6.468-1.914a2.769,2.769,0,0,1,2.12.269" transform="translate(-1236.149 -91.031)"/>
        <path id="Path_55" data-name="Path 55" d="M365.572,157.369H156.633a4.079,4.079,0,0,1-4.071-3.675c-.584-5.742-1.049-14.635-1.5-23.236-.315-6.024-.613-11.713-.937-16.074-.5-6.781-.882-7.637-1.2-7.907-1.376-1.179-6.149-.82-15.477,1.165-3.332.709-10.785,2.1-17.661,3.017-11.376,1.521-13.652.761-14.1.363a4.159,4.159,0,0,1-.641-.718,10.157,10.157,0,0,1,1.6-.644,47.647,47.647,0,0,1,6.961-1.475c5.662-.873,12.972-1.539,19.422-2.127,1.709-.156,3.367-.307,4.93-.456a16.5,16.5,0,0,0,3.106.3q.244,0,.489-.007a33.522,33.522,0,0,0,8.452-1.718c5.207-1.528,5.268-3.533,5.163-4.111a1.8,1.8,0,0,0-1.228-1.322c1.317-2.486,2.086-5.738,3.068-9.9.335-1.417.681-2.883,1.086-4.488.605-2.4,1.18-4.591,1.735-6.715,2.6-9.946,4.481-17.132,5.087-27.853a54.169,54.169,0,0,0-1.368-17.085,19.877,19.877,0,0,0-2.61-5.917,9.231,9.231,0,0,0-4.011-3.432,3.387,3.387,0,0,0-3.17.444c-1.821,1.121-3.62,3.556-5.14,6.117a27.836,27.836,0,0,0,.839-3.151,9.529,9.529,0,0,0-.744-6.508,8.6,8.6,0,0,0-5.827-4.024,9.9,9.9,0,0,0-6.681.518,8.568,8.568,0,0,0-1.5.894c.7-3.974.135-7.263-1.631-9.525a8.312,8.312,0,0,0-6.3-3.031,7.7,7.7,0,0,0-6.488,2.534,8.535,8.535,0,0,0-1.017,1.417,8.537,8.537,0,0,0-3.339-6.648C110.49,1.158,107.676.283,104.411.055c-2.5-.174-5.726.056-7.286,1.226-2.507,1.88-6.9,9.28-7.586,10.447-5.02.97-7.912,1.778-8.585,4.024-.037.122-.1.338-.194.64C76.776,29.453,70.3,51.982,71.653,56.111c1.032,3.143,5.4,8.63,10.458,14.983,3.044,3.823,6.191,7.777,9.076,11.778,5.55,7.7,7.1,11.066,7.641,13.083a1.4,1.4,0,0,0,.263,1.3c.015.105.03.207.044.307s.029.208.044.31a27.547,27.547,0,0,1,0,5.977,1.543,1.543,0,0,0,.115.9,9.745,9.745,0,0,0,.751,5.311,1.547,1.547,0,0,0-.721,1.128c-.235,2.876-3.258,30.7-4.546,42.526a4.087,4.087,0,0,1-4.069,3.649H.366a.366.366,0,0,0,0,.732H90.708a4.818,4.818,0,0,0,4.8-4.3c1.289-11.831,4.313-39.66,4.548-42.545a.868.868,0,0,1,.376-.551,4.941,4.941,0,0,0,.774.869c.42.371,1.432.848,5.351.709,2.377-.084,5.517-.386,9.333-.9,6.9-.922,14.373-2.315,17.717-3.026,4.063-.864,7.186-1.408,9.549-1.66,3.582-.383,4.855-.035,5.29.328.17.225.519,1.52.966,7.6.318,4.33.611,9.933.921,15.866.45,8.61.916,17.512,1.5,23.272a4.81,4.81,0,0,0,4.8,4.333h208.94a.366.366,0,0,0,0-.732M99.78,96.911c-.045-.282-.1-.587-.187-.93a.193.193,0,0,1,.074-.092.3.3,0,0,1,.128-.023,7.568,7.568,0,0,1,1.719.514c.75.274,1.72.627,2.971,1q-.89.089-1.644.1c-1.947.038-2.74-.309-3.06-.572m6.543.967q.516.128,1.081.253c-1.186.02-2.488.08-3.865.2a5.732,5.732,0,0,0-3.484,1.131c-.025-.577-.07-1.138-.142-1.642,1.215.5,3.379.522,6.411.056m27.668,6.986a26.073,26.073,0,0,1-4.5-1.38c-3.359-1.321-8.985-1.643-14.183-1.643-3.081,0-6.013.113-8.233.2-1.449.056-2.594.1-3.354.1-2.161,0-3.4-.942-3.427-1.593-.024-.547.829-1.265,3.312-1.485a51.349,51.349,0,0,1,10.1.071.369.369,0,0,0,.082,0q.784.08,1.622.147c13.136,1.039,30.451.2,33.09,0,.1-.007.2-.01.291-.009-1.921,2.982-4.977,4.557-11.051,5.213-1.159.125-2.418.25-3.746.377M99.9,103.948c.064-.48.13-1.331.158-2.307a3.158,3.158,0,0,0,.778.581,6.128,6.128,0,0,0,2.876.652c.774,0,1.925-.045,3.382-.1,5.911-.228,16.914-.654,22.12,1.394.866.341,1.676.625,2.449.862-2.622-.04-14.614-.189-22.625.263-5.252.3-8.277.056-8.99-.714a.69.69,0,0,1-.148-.629m50.548-3.75c.165.9-1.209,2.268-4.649,3.277-1.453.426-2.74.785-3.927,1.061,3.921-.953,6.171-2.609,7.7-5.143a1.148,1.148,0,0,1,.874.8m-2.009-1.644c-2.631.2-19.888,1.035-32.978,0a58.644,58.644,0,0,1-7.272-1q1.471-.286,3.155-.694a16.787,16.787,0,0,0,6.766-3.588,24.4,24.4,0,0,0,5.37-6.6,26.767,26.767,0,0,0,2.336-21.117,55.767,55.767,0,0,0-3.7-9c.551.715,1.15,1.543,1.756,2.464,1.991,3.031,4.442,7.716,4.815,12.821a25.186,25.186,0,0,1-1.313,9.587c-1.006,3.422-1.734,5.895,2.154,8.136,2.836,1.635,7.19,2.724,11.946,2.987.716.04,1.418.059,2.1.059,3.365,0,6.168-.475,7.435-1.3a3.856,3.856,0,0,0,.835-.737,33.132,33.132,0,0,1-2.641,7.99,3.979,3.979,0,0,0-.765-.015M135.132,68.079a34.546,34.546,0,0,0-5.328-12.16c-.134-.2-.27-.41-.387-.595a62.407,62.407,0,0,1,7.6,6.8A97.977,97.977,0,0,1,147.8,74.733a29.484,29.484,0,0,1,3.877,7.7,11.768,11.768,0,0,1,.544,5.614,3.971,3.971,0,0,1-1.607,2.653c-1.379.9-5.033,1.347-9.092,1.123a32.41,32.41,0,0,1-8.913-1.665.37.37,0,0,0-.08-.058c-2.38-1.292-3.762-3.248-3.7-5.232a3.416,3.416,0,0,1,1.918-3.05c3.088-1.425,6.376-4.275,4.38-13.739m19.994,9.379c-.556,2.125-1.131,4.323-1.737,6.721-.115.456-.225.9-.332,1.335-.277-3.2-1.89-7.125-4.65-11.192a98.692,98.692,0,0,0-10.875-12.715c-3.774-3.792-7.171-6.751-8.261-7.195-.189-.077-.582-.237-.817.05-.27.328-.036.683.737,1.86a33.864,33.864,0,0,1,5.224,11.909c.861,4.082.778,7.264-.248,9.456a7.087,7.087,0,0,1-3.722,3.467,4.144,4.144,0,0,0-2.344,3.691,5.419,5.419,0,0,0,.915,3.111,6.946,6.946,0,0,0,.625.823c-3.1-1.9-2.543-3.787-1.556-7.14a25.813,25.813,0,0,0,1.341-9.847c-.384-5.262-2.895-10.066-4.933-13.17a37.764,37.764,0,0,0-4.352-5.507c-.6-.95-1.18-1.77-1.7-2.463l-.035-.047q.224.132.469.267a17.374,17.374,0,0,0,7.459,2.121c1.976.094,4.165.047,6.482,0,4.871-.106,9.908-.216,13.335,1.008a18.2,18.2,0,0,0,5.583,1.07q.177,0,.351,0a10.117,10.117,0,0,0,5.183-1.251,7.242,7.242,0,0,0,2.864-3.089c-.659,10.113-2.494,17.13-5,26.728m-31.7-32.652a10.479,10.479,0,0,0,.85,3.12,6.126,6.126,0,0,0,4.728,3.818,11.852,11.852,0,0,0,1.777.138,8.256,8.256,0,0,0,6.823-3.206,4.733,4.733,0,0,0,2.148,3.124,6.636,6.636,0,0,0,.87.495c-2.48-.154-5.176-.1-7.824-.038-2.3.05-4.48.1-6.431,0a16.483,16.483,0,0,1-9.736-3.819q-.246-.274-.471-.512a6.562,6.562,0,0,0,2.005.331,5.531,5.531,0,0,0,.89-.071,6.035,6.035,0,0,0,4.085-2.906c.094-.144.19-.3.286-.477m26.719-20.382a2.667,2.667,0,0,1,2.506-.391c2.751,1.141,4.894,4.208,6.2,8.87a50.945,50.945,0,0,1,1.426,14.953,7.215,7.215,0,0,1-3.379,5.332c-3.022,1.773-7.4,1.224-10.5.119a13.712,13.712,0,0,0-1.321-.393,6.3,6.3,0,0,0,1.725-.544q.175-.086.348-.186a18.647,18.647,0,0,0,9.384-3.118c2.009-1.375,3.31-2.971,3.363-3.662.05-.649-.6-1.323-.992-1.668a4.633,4.633,0,0,0-3.623-1.282c-.921.192-2.02,1.687-3.41,3.58-1.552,2.113-3.485,4.744-5.392,5.678a6.6,6.6,0,0,1-6.315-.519,3.851,3.851,0,0,1-1.875-3.52c.12-1.621,1.754-6.677,4-11.622,2.752-6.07,5.544-10.2,7.862-11.627m-1.817,26.911a29.423,29.423,0,0,0,4.132-4.868c1.142-1.555,2.323-3.162,2.969-3.3a1.842,1.842,0,0,1,.376-.037,4.439,4.439,0,0,1,2.613,1.152c.532.468.76.878.746,1.062-.027.312-.975,1.7-3.053,3.118a17.656,17.656,0,0,1-7.783,2.87M132.551,17.4a9.139,9.139,0,0,1,6.163-.455c6.542,1.614,6.584,6.76,6.027,9.684a55.388,55.388,0,0,1-2.962,8.763l-.163.357a55.149,55.149,0,0,0-4.027,11.578c-1.157,2.242-3.979,4.374-8.475,3.693a5.354,5.354,0,0,1-4.163-3.378,9.8,9.8,0,0,1-.8-2.953.361.361,0,0,0-.5-.312c2.542-5.072,5.614-19.222,6.843-25.581a7.238,7.238,0,0,1,2.057-1.4M116.842,8.112a6.94,6.94,0,0,1,5.9-2.29,7.5,7.5,0,0,1,5.763,2.75c1.647,2.109,2.159,5.375,1.443,9.2-1.153,6.152-4.735,23.016-7.418,27.115a5.336,5.336,0,0,1-3.59,2.584,6.988,6.988,0,0,1-5.253-1.719c-2.784-2.2-3.741-4.486-3.1-7.41,2.125-3.614,3.655-12.888,4.409-20.834a62.838,62.838,0,0,0,.361-6.89,7.648,7.648,0,0,1,1.486-2.5m-19,21.215c.367-.011.748-.032,1.147-.067a11.624,11.624,0,0,0,5.45-2.292,30,30,0,0,0,5.111-4.661,30.349,30.349,0,0,0,4.92-7.275c-.054.746-.121,1.544-.2,2.4-1.019,10.741-2.91,19.083-4.818,21.254a3.758,3.758,0,0,1-2.9,1.119,9.385,9.385,0,0,1-6.581-3.241c-2.234-2.587-2.193-6.173-2.125-7.24M97.564,1.867C98.717,1,101.384.578,104.36.786c3.068.214,5.789,1.044,7.1,2.165a7.409,7.409,0,0,1,2.829,4.4,13.177,13.177,0,0,1,.258,1.756,5.116,5.116,0,0,0-.6-1.047,5.649,5.649,0,0,0-3.134-2.025,3.594,3.594,0,0,0-1.007-.226q-.482-.083-1.009-.13C105.919,5.42,102.46,6.961,98.8,8.593A38.243,38.243,0,0,1,90.9,11.469l-.4.076c1.236-2.062,4.952-8.094,7.065-9.678M111.787,7.7a4.175,4.175,0,0,1,.082,3.716c-.665,1.877-3.074,3.995-5.859,5.149a8.1,8.1,0,0,1-6.529.282,3.9,3.9,0,0,1-2.17-2.314,7.069,7.069,0,0,1,.631-4.757q.579-.255,1.155-.513c3.573-1.592,6.947-3.1,9.642-2.855a10.463,10.463,0,0,1,1.836.317,2.551,2.551,0,0,1,1.212.973M81.459,16.605c.092-.3.159-.521.2-.643.577-1.924,3.441-2.659,9.385-3.774A29.325,29.325,0,0,0,96.957,10.2a7.1,7.1,0,0,0-.345,4.552,4.606,4.606,0,0,0,2.552,2.751,6.883,6.883,0,0,0,2.977.632,10.921,10.921,0,0,0,4.148-.9c2.962-1.228,5.54-3.523,6.269-5.582a5.1,5.1,0,0,0,.08-3.929c1.306,1.058,1.845,2.75,1.7,5.176-.106,1.769-2.4,5.6-5.338,8.916-3.559,4.016-7.232,6.461-10.076,6.708a13.263,13.263,0,0,1-7.977-1.488c-.807-.41-1.391-.707-1.953-.461a1.334,1.334,0,0,0-.6,1.552,4.947,4.947,0,0,0,4.45,3.835c1.81.185,2.873.594,3.446,1.327.6.77.754,2.032.477,3.97a6.724,6.724,0,0,0-.068.971,17.738,17.738,0,0,0-5.256-.3c-2.8.288-4.952,1.362-5.769,2.873a9.231,9.231,0,0,1-2.7,2.656c-1.416,1.06-2.881,2.156-1.814,3.6,1.461,1.973,5.475,2.1,10.738.349a8.125,8.125,0,0,0,4.651-4.2,11.434,11.434,0,0,0,.769-1.937c.062.176.126.351.189.526.669,1.841,1.3,3.579-.047,6.273-2.538,5.075-9.3,11.85-15.392,11.372a13.685,13.685,0,0,1-7.318-2.956A14.587,14.587,0,0,1,72.2,53.948c.225-5.21,3.488-18.427,9.255-37.343m15.3,22.574c-1.446,4.29-5.858,5.753-8.491,5.684-2.193-.056-2.5-2.28-2.539-2.857a5.261,5.261,0,0,0,.581-.851c.691-1.278,2.683-2.233,5.2-2.493a17.122,17.122,0,0,1,5.225.332c.007.062.015.124.024.185m-11.671,3.5a4.846,4.846,0,0,0,.313.992A3.038,3.038,0,0,0,88.252,45.6l.189,0a9.971,9.971,0,0,0,8.072-4.231,8.063,8.063,0,0,1-4.851,5.346c-4.873,1.624-8.673,1.59-9.918-.09-.575-.777.032-1.352,1.665-2.574a18.971,18.971,0,0,0,1.683-1.366M97.5,39.169a23.312,23.312,0,0,1,3.869,1.341C104.9,42.085,116.7,48.329,120.5,62.537a17.989,17.989,0,0,1-2.739,15.806,15.68,15.68,0,0,1-12.755,6h-.118C94.7,84.28,93.2,81.884,89.569,76.093c-.552-.881-1.178-1.879-1.881-2.94-1-1.5-1.9-2.905-2.707-4.144-2.7-4.172-4.685-7.237-7.3-9.926a13.563,13.563,0,0,0,4.33,1.087q.35.027.7.027c3.543,0,6.81-2.082,8.98-3.892A26.7,26.7,0,0,0,98.111,48.4c1.488-2.976.772-4.946.08-6.851a12.58,12.58,0,0,1-.69-2.376M82.684,70.637C77.67,64.339,73.34,58.9,72.349,55.882a3.379,3.379,0,0,1-.136-.772,16.236,16.236,0,0,0,2.061,1.934c.175.138.363.28.562.423,3.853,3.171,6.112,6.66,9.53,11.941.8,1.24,1.713,2.646,2.712,4.151.7,1.052,1.321,2.046,1.871,2.924,1.835,2.929,3.161,5.046,5.387,6.466,2.288,1.46,5.444,2.1,10.551,2.127h.123a16.4,16.4,0,0,0,13.334-6.285,17.405,17.405,0,0,0,3.294-7.522,20.3,20.3,0,0,0-.428-8.921,33.172,33.172,0,0,0-8.081-14.339,36.3,36.3,0,0,0-11.461-8.167A23.932,23.932,0,0,0,97.43,38.4a5.976,5.976,0,0,1,.057-1.028c.311-2.179.119-3.574-.625-4.525-.715-.915-1.9-1.395-3.949-1.6a4.252,4.252,0,0,1-3.8-3.22c-.062-.393.007-.694.175-.768.245-.107.7.123,1.327.443A13.355,13.355,0,0,0,97.1,29.334a11.1,11.1,0,0,0,2.307,7.711,10.157,10.157,0,0,0,7.133,3.495h.029a4.561,4.561,0,0,0,3.109-1.05c-.172,2.6.978,4.8,3.55,6.832.223.176.448.339.675.492a23.65,23.65,0,0,1,3.971,4.308,49,49,0,0,1,7.244,14.652,26.032,26.032,0,0,1-2.276,20.536c-2.864,5.08-7.227,8.756-11.671,9.834-1.788.434-3.4.764-4.813.988a43.2,43.2,0,0,1-4.6-1.441c-1.256-.458-1.9-.692-2.389-.474-.689-2.142-2.451-5.643-7.593-12.775-2.9-4.016-6.049-7.976-9.1-11.806m17.284,34.788c.691.391,2.083.721,5.251.721,1.071,0,2.346-.038,3.865-.123,4.789-.27,11.011-.325,15.789-.317-5.323.5-10.864,1.061-15.374,1.756-4.94.761-7.508,1.517-8.829,2.213a8.757,8.757,0,0,1-.7-4.249" transform="translate(0 -0.003)"/>
      </g>
    </g>
    <path id="Line_1" data-name="Line 1" d="M1556.149.35H0v-.7H1556.149Z" transform="translate(0.5 1586.748)"/>
  </g>
</svg>
