<svg id="Group_10" data-name="Group 10" xmlns="http://www.w3.org/2000/svg" xmlns:xlink="http://www.w3.org/1999/xlink" width="100" height="100" viewBox="0 0 100 100">
  <defs>
    <clipPath id="clip-path">
      <rect id="Rectangle_14" data-name="Rectangle 14" width="100" height="100" fill="#fff"/>
    </clipPath>
  </defs>
  <g id="Group_9" data-name="Group 9" clip-path="url(#clip-path)">
    <path id="Path_32" data-name="Path 32" d="M75.07,48.35,38.84,27.43a1.947,1.947,0,0,0-2.92,1.69V70.96a1.947,1.947,0,0,0,2.92,1.69L75.08,51.73a1.956,1.956,0,0,0-.01-3.38" fill="#fff"/>
    <path id="Path_33" data-name="Path 33" d="M50,100a50,50,0,1,1,50-50,50.057,50.057,0,0,1-50,50M50,5.66A44.34,44.34,0,1,0,94.34,50,44.389,44.389,0,0,0,50,5.66" fill="#fff"/>
  </g>
</svg>
