<svg id="Group_3" data-name="Group 3" xmlns="http://www.w3.org/2000/svg" xmlns:xlink="http://www.w3.org/1999/xlink" width="132.777" height="121.711" viewBox="0 0 132.777 121.711">
  <defs>
    <clipPath id="clip-path">
      <rect id="Rectangle_3" data-name="Rectangle 3" width="132.777" height="121.711" fill="none"/>
    </clipPath>
  </defs>
  <g id="Group_2" data-name="Group 2" clip-path="url(#clip-path)">
    <path id="Path_1" data-name="Path 1" d="M30.128,70.259,28.845,54.068l2.072.13c1.161.072,4.955.636,5.668-.1.949-.979.737-2.991-.681-2.8H25.529c-.984-.082-1.491.826-1.391,2.994-.335,12.417-.277,23.061.349,31.99.056,2.775,1.546,3.522,2.806,2.954C29.54,88.219,29.427,83,29.572,80.72q.232-3.656.22-7.815l5.367.017c2.485.378,2.332-3.671-.294-3.041Z" fill="#eb2b36" fill-rule="evenodd"/>
    <path id="Path_2" data-name="Path 2" d="M38.884,65.033c-.088,6.8-.515,12.675-.467,19.328-.221,2.481,1.044,4.042,2.436,4.319,1.225.244,2.574-.456,2.751-3.116.084-1.6.189-3.175.324-4.722A79.573,79.573,0,0,1,45.813,68.9c.316-1.3.606-2.123.9-2.162.684-.09.724,1.065.95,4.5.4,2.188,4.272,1.8,5.511,1.667,1.379.06,1.608-1.937-.027-2.288-.5-.123-.829-.991-.675-2.235a11.412,11.412,0,0,0-.435-5.218c-.8-1.8-2.921-1.81-4.4-.948A6.367,6.367,0,0,0,45.169,65.1c-.425.973-.927,2.057-1.565,3.278l-.175-3.255c-.662-5.1-4.351-4.081-4.545-.086" fill="#eb2b36" fill-rule="evenodd"/>
    <path id="Path_3" data-name="Path 3" d="M61.785,74.763a8.481,8.481,0,0,0,3.59-5.812c.588-3.726-.809-5.58-2.425-1.373a25.065,25.065,0,0,0-1.165,7.185M56.7,85.343c2,4.168,6.552,5.585,11.6.24.592-.627,1.9-2.172,1.039-3.064-1.1-1.137-2.286.71-2.863,1.382-4.049,4.717-5.734-1.735-4.929-6.036a12.553,12.553,0,0,0,7.208-7.887c1.709-6.159-2.836-9.546-7.756-6.717C55.721,66.3,54.4,80.566,56.7,85.343" fill="#eb2b36" fill-rule="evenodd"/>
    <path id="Path_4" data-name="Path 4" d="M82.4,70.139a1.846,1.846,0,0,0,1.952-1.987c.167-6.189-4.694-7.534-8.235-5.5a8.227,8.227,0,0,0-3.126,3.354,11.012,11.012,0,0,0-1.234,5.962c.277,4.451,2.25,8.079,4.109,11.939,1.1,2.286,2.027,4.6,1.635,6.089-.472,1.795-2.573,1.423-3.416-2.106-.239-2.336-2.875-2.162-2.719.181.344,2.981.975,5.643,5.255,5.588,8.217-.107,5.683-9.272,3.786-14.234-.178-.465-.359-.927-.538-1.384-1.013-2.579-3.978-9.165-1.553-11.573,1.119-1.111,2.871-1.367,3.2.569.164.976-.43,2.816.888,3.1" fill="#eb2b36" fill-rule="evenodd"/>
    <path id="Path_5" data-name="Path 5" d="M87.562,57.949a124.858,124.858,0,0,0-1.2,25.654c.187,2.6.615,4.445,2.575,4.616a2.363,2.363,0,0,0,2.524-1.684c1.454-4.82,2.867-11.809,5.51-16.276-.311,6.013-.822,12.406.214,15.859.614,2.706,4.812,5.153,5.7,3.306.424-.878-.228-2.917-.356-4.066-.045-.4-.081-.82-.1-1.248-.23-5.964.147-12.262.313-18.509-.146-2.5-1.561-3.265-3.155-2.878-4.222,1.025-6.04,8.808-7.512,12.673a146.823,146.823,0,0,1,2-21.652c.391-2.513-.747-3.236-2.263-3.109-1.8.151-2.884,1.272-3.626,4.035a28.275,28.275,0,0,0-.635,3.279" fill="#eb2b36" fill-rule="evenodd"/>
    <path id="Path_6" data-name="Path 6" d="M14.8,13.554c-.195,2.2,2.673,1.673,2.76-.045a19.393,19.393,0,0,0-.185-6.729C16.4,2.636,14.458,1.555,10.533,1.5A6.462,6.462,0,0,0,5.7,3.088C3.979,4.78,3.136,7.209,3,10.947A18.61,18.61,0,0,0,4.826,19.3c1.731,3.486,4.264,5.722,5.652,11.547.769,3.39-.03,8.027-4.039,7.652-2.574-.241-3.808-5.026-3.444-8.657C3.114,26.818.111,27.061,0,29.148c-.045,6.435,1.842,12.095,6.364,13.425,2.93.863,6.175.673,8.416-1.085,4.418-3.468,2.72-12.317.855-16.84C13.57,19.639,9.467,14.657,9.777,8.9c.131-2.43,1.11-4.01,2.358-3.924,3.208.22,2.7,5.333,2.677,7.653Z" fill="#eb2b36" fill-rule="evenodd"/>
    <path id="Path_7" data-name="Path 7" d="M29.966,20.39a57.186,57.186,0,0,0,.063,21.833,1.713,1.713,0,0,1,0,3.419c-6.413.445-8.2-9.957-7.9-25.571.168-3.915,1.477-4.632,4.49-4.638,2.9,0,3.847,1.653,3.345,4.957m-3.127-16.4a4.2,4.2,0,1,0,4.249,4.2,4.225,4.225,0,0,0-4.249-4.2" fill="#eb2b36" fill-rule="evenodd"/>
    <path id="Path_8" data-name="Path 8" d="M35.182,19.038l.2,19.843c-.263,5.059,4.072,7.006,5.836,2.049a161.086,161.086,0,0,0,5.51-18.8c.243,4.787-.64,11.659-.679,19.634-.111,2.657,1.708,3.993,3.277,3.265,1.631-.756,1.589-1.481,2.2-4.278a31.383,31.383,0,0,1,1.4-4.281,85.754,85.754,0,0,1,3.817-8.62l.19,14.741c.729,5.983,9.984,5.57,6.458-1.742l.7-16.4c.333-4.781-.65-7.251-2.716-7.749-2-.484-4.5,1.456-5.663,5.57l-3.046,8V19.542c.633-6.934-6.267-7.828-7.716-1.474l-2.639,11.58c-.106.463-.5-5.369-.728-8.837-.158-2.359-.382-7.227-3.865-6.844-1.516.166-2.744,1.759-2.532,5.071" fill="#eb2b36" fill-rule="evenodd"/>
    <path id="Path_9" data-name="Path 9" d="M80.794,21c-.593-.038-1.426.755-2.5,2.421a17.24,17.24,0,0,0-3.356,9.059q-.109,1.068-.182,2.286c-.171,2.888-.738,4.948,2.182,4.4,2.168-.408,3.792-3.241,4.546-7.952.247-1.537,1.18-10.095-.685-10.212M68.373,35.678c-.1,2.891-.171,5.96-.217,9.173-.043,3.016-.558,6.856.983,9.486A2.976,2.976,0,0,0,71,55.954c2.538.377,2.477-6.116,2.6-7.995l.385-6.1c3.412,1.006,6.325.951,8.6-.469a7.656,7.656,0,0,0,2.808-3.2C86.991,35,88,28.4,88.244,24.9c.355-5-.3-10.027-4.406-10.382-2.666-.23-5.771,2.527-8.358,7.488.766-8.865-2.419-10.294-4.483-6.992a16.151,16.151,0,0,0-1.679,5.943c-.627,4.669-.781,9.99-.945,14.725" fill="#eb2b36" fill-rule="evenodd"/>
    <path id="Path_10" data-name="Path 10" d="M100.155,13.609q-.81,7.538-.974,13.959a84.173,84.173,0,0,0,.021,9.17,16.936,16.936,0,0,0,1.118,4.133c1.2,3.364-2.4,5.019-5.119,1.754-2.779-3.343-2.387-7.247-2.406-11.4A87.869,87.869,0,0,1,95.041,9.616c.589-2.367,1.576-6.953,3.431-8.454,1.787-1.446,4.257-1.62,4.557-.082a7.5,7.5,0,0,1-.931,2.925c-1.515,3.511-1.54,5.857-1.943,9.6" fill="#eb2b36" fill-rule="evenodd"/>
    <path id="Path_11" data-name="Path 11" d="M104.43,27.033a28.414,28.414,0,0,0,.5,7.33c.647,2.907,2.094,5.841,5.56,4.948,1.7-.438,3.585-1.888,5.367-4.51.077,9.09-1.324,14.447-3.294,16.8-2.755,3.3-6.4,1.356-4.046-4.393,1.475-2.785-2.268-4.806-3.31-1.479-.837,3.592-.739,8.379,1.618,10.378,2.03,1.723,5.3,1.939,8.4.181,5.077-2.876,6.5-7.951,7.39-13.407a100.7,100.7,0,0,0,.931-19.214c-.108-3.294.211-8.765-2.027-11.219-2.207-2.422-5.657-1.814-5.387,3.722-.108,5.619.63,14.516-3.867,18.218-1.013.833-1.282-1.328-1.128-4.743L112.708,16.9c.714-3.831-1.95-5.456-4.149-4.757a4.222,4.222,0,0,0-2.342,2.732c-1.138,2.9-1.638,8.76-1.787,12.161" fill="#eb2b36" fill-rule="evenodd"/>
    <path id="Path_12" data-name="Path 12" d="M10.877,86.733a3.862,3.862,0,0,1,.807,2.565,2.633,2.633,0,0,1-1.216,1.97,2.624,2.624,0,0,1-2.317.459,3.973,3.973,0,0,1-2.068-1.681l-.212-.1L4.7,88.235,1.651,90.328.525,88.692,8.469,83.23ZM7.431,90.254l-2.189,5.3L3.96,93.687l2.013-4.522ZM7.11,89.039a1.959,1.959,0,0,0,1,.847,1.294,1.294,0,0,0,1.108-.257,1.3,1.3,0,0,0,.637-.943,1.961,1.961,0,0,0-.433-1.236l-1.15-1.673L5.96,87.366Z" fill="#eb2b36"/>
    <path id="Path_13" data-name="Path 13" d="M13.129,97.115a1.311,1.311,0,0,0,.456-.937,1.291,1.291,0,0,0-.4-.921,1.649,1.649,0,0,0-.859-.491,1.612,1.612,0,0,0-1.078.208l-.808-1.6a2.638,2.638,0,0,1,1.869-.292A3.9,3.9,0,0,1,14.3,94.305a4.347,4.347,0,0,1,.951,1.417,2.451,2.451,0,0,1,.129,1.428,2.638,2.638,0,0,1-.8,1.334l-2.133,2.059a.477.477,0,0,0-.035.763,1.474,1.474,0,0,0,.377.286l-.974.778a2.114,2.114,0,0,1-.8-.551,2.317,2.317,0,0,1-.513-.784,1.411,1.411,0,0,1-.062-.833,1.6,1.6,0,0,1,.484-.792l.042-.04.285.211a1.644,1.644,0,0,1-1.012.308,2.624,2.624,0,0,1-1.09-.278,3.368,3.368,0,0,1-.954-.694,3.318,3.318,0,0,1-.73-1.082,1.815,1.815,0,0,1-.1-1.061,1.9,1.9,0,0,1,.575-.96,1.793,1.793,0,0,1,1.326-.55,2.858,2.858,0,0,1,1.555.591l2.306,1.591-.9.851-1.47-1.018a2.214,2.214,0,0,0-.717-.354.607.607,0,0,0-.571.2.636.636,0,0,0-.212.58,1.1,1.1,0,0,0,.315.6,2.5,2.5,0,0,0,.468.381,1.618,1.618,0,0,0,.533.216,1.082,1.082,0,0,0,.569-.042,1.549,1.549,0,0,0,.575-.372Z" fill="#eb2b36"/>
    <path id="Path_14" data-name="Path 14" d="M21.489,96.811l-6.441,8.3-1.58-1.228,6.441-8.294Zm2.33,5.859L19,103.381l-.428-.092-3.173.514,1.285-1.7,5.34-.828Zm-3.87-.065-.471,5.941-1.788-1.389.458-4.471Z" fill="#eb2b36"/>
    <path id="Path_15" data-name="Path 15" d="M21.214,109.636l5.233-9.105,1.735,1-2.213,3.85a2.375,2.375,0,0,1,1.357-.426,2.8,2.8,0,0,1,1.374.394,3.016,3.016,0,0,1,1.026.927,2.186,2.186,0,0,1,.37,1.232,2.914,2.914,0,0,1-.441,1.456l-2.388,4.154-1.735-1,2.1-3.647a1.819,1.819,0,0,0,.334-1.316,1.279,1.279,0,0,0-.632-.776,1.765,1.765,0,0,0-.8-.233,1.488,1.488,0,0,0-.865.245,2.473,2.473,0,0,0-.8.9l-1.921,3.343Z" fill="#eb2b36"/>
    <path id="Path_16" data-name="Path 16" d="M35.769,108.746a4.052,4.052,0,0,1,1.63,1.161,3.244,3.244,0,0,1,.72,1.7,4.623,4.623,0,0,1-1.556,3.775,3.229,3.229,0,0,1-1.713.707,4.405,4.405,0,0,1-3.6-1.483,3.221,3.221,0,0,1-.724-1.712,4.622,4.622,0,0,1,1.556-3.775,3.238,3.238,0,0,1,1.717-.7,4.05,4.05,0,0,1,1.969.322m-.568,1.377a1.673,1.673,0,0,0-.968-.123,1.6,1.6,0,0,0-.84.484,4.148,4.148,0,0,0-.979,2.377,1.589,1.589,0,0,0,.255.934,1.666,1.666,0,0,0,.773.6,1.642,1.642,0,0,0,.955.118,1.6,1.6,0,0,0,.839-.484,4.14,4.14,0,0,0,.98-2.377,1.589,1.589,0,0,0-.255-.934,1.645,1.645,0,0,0-.76-.59" fill="#eb2b36"/>
    <rect id="Rectangle_2" data-name="Rectangle 2" width="9.64" height="2.016" transform="translate(43.411 119.102) rotate(-76.509)" fill="#eb2b36"/>
    <path id="Path_17" data-name="Path 17" d="M48.014,120.144l1.19-7.206,1.715.284-.1,1.433a2.515,2.515,0,0,1,1.033-1.013,2.332,2.332,0,0,1,1.457-.174,2.166,2.166,0,0,1,.44.117,1.216,1.216,0,0,1,.312.17l-.5,1.619a1.6,1.6,0,0,0-.339-.145,4.265,4.265,0,0,0-.535-.118,1.828,1.828,0,0,0-.871.071,1.694,1.694,0,0,0-.767.525,2.052,2.052,0,0,0-.437,1.031l-.617,3.732Z" fill="#eb2b36"/>
    <path id="Path_18" data-name="Path 18" d="M59.028,116.792a1.307,1.307,0,0,0-.29-1,1.287,1.287,0,0,0-.915-.415,1.644,1.644,0,0,0-.966.212,1.6,1.6,0,0,0-.661.876l-1.669-.642a2.637,2.637,0,0,1,1.192-1.47,3.9,3.9,0,0,1,2.292-.427,4.343,4.343,0,0,1,1.655.415,2.444,2.444,0,0,1,1.053.973,2.654,2.654,0,0,1,.3,1.529l-.2,2.958q-.038.553.487.59a1.464,1.464,0,0,0,.471-.041l-.2,1.231a2.132,2.132,0,0,1-.961.124,2.313,2.313,0,0,1-.906-.239,1.407,1.407,0,0,1-.6-.576,1.61,1.61,0,0,1-.171-.912l0-.059.354-.034a1.644,1.644,0,0,1-.546.907,2.629,2.629,0,0,1-.995.524,3.393,3.393,0,0,1-1.173.124,3.3,3.3,0,0,1-1.267-.315,1.8,1.8,0,0,1-.784-.72,1.9,1.9,0,0,1-.217-1.1,1.8,1.8,0,0,1,.616-1.3,2.879,2.879,0,0,1,1.55-.6l2.778-.364-.1,1.238-1.773.229a2.224,2.224,0,0,0-.769.217.608.608,0,0,0-.293.529.636.636,0,0,0,.231.573,1.111,1.111,0,0,0,.636.234,2.42,2.42,0,0,0,.6-.032,1.586,1.586,0,0,0,.541-.2,1.072,1.072,0,0,0,.394-.412,1.544,1.544,0,0,0,.178-.661Z" fill="#eb2b36"/>
    <path id="Path_19" data-name="Path 19" d="M67.722,116.8a1.307,1.307,0,0,0-.4-.963,1.288,1.288,0,0,0-.956-.311,1.652,1.652,0,0,0-.937.316,1.609,1.609,0,0,0-.56.945l-1.73-.455a2.638,2.638,0,0,1,1.023-1.592,3.89,3.89,0,0,1,2.231-.677,4.339,4.339,0,0,1,1.691.229,2.45,2.45,0,0,1,1.154.852,2.651,2.651,0,0,1,.463,1.486l.123,2.963c.015.37.2.547.548.533a1.462,1.462,0,0,0,.464-.093l-.065,1.246a2.131,2.131,0,0,1-.941.229,2.319,2.319,0,0,1-.926-.137,1.412,1.412,0,0,1-.665-.507,1.61,1.61,0,0,1-.27-.887l0-.059.348-.073a1.646,1.646,0,0,1-.443.962,2.622,2.622,0,0,1-.931.63,3.379,3.379,0,0,1-1.152.253,3.32,3.32,0,0,1-1.293-.173,1.809,1.809,0,0,1-.86-.63,1.9,1.9,0,0,1-.336-1.068,1.8,1.8,0,0,1,.47-1.357,2.873,2.873,0,0,1,1.474-.77l2.72-.668L68,118.263l-1.737.423a2.2,2.2,0,0,0-.74.3.607.607,0,0,0-.233.558.635.635,0,0,0,.293.543,1.1,1.1,0,0,0,.657.163,2.427,2.427,0,0,0,.6-.1,1.582,1.582,0,0,0,.515-.255,1.077,1.077,0,0,0,.347-.453,1.556,1.556,0,0,0,.1-.677Z" fill="#eb2b36"/>
    <path id="Path_20" data-name="Path 20" d="M75.558,120.828a2.939,2.939,0,0,1-1.665-.195,3.054,3.054,0,0,1-1.3-1.111,4.7,4.7,0,0,1-.714-1.943,4.614,4.614,0,0,1,.1-2.107,3.088,3.088,0,0,1,.93-1.463,3.044,3.044,0,0,1,1.539-.695,2.317,2.317,0,0,1,1.659.3,2.584,2.584,0,0,1,1.031,1.286l-.151.261-.823-5.208,1.977-.313,1.639,10.373L78,120.294l-.477-2.173.249.079a2.537,2.537,0,0,1-.261,1.247,2.5,2.5,0,0,1-.787.915,2.7,2.7,0,0,1-1.169.466m.338-1.606a1.526,1.526,0,0,0,.852-.408,1.742,1.742,0,0,0,.46-.879,3.352,3.352,0,0,0,.014-1.274,3.1,3.1,0,0,0-.388-1.144,1.662,1.662,0,0,0-.695-.651,1.524,1.524,0,0,0-.921-.121,1.544,1.544,0,0,0-1.172.769,2.656,2.656,0,0,0-.191,1.738,2.687,2.687,0,0,0,.71,1.6,1.506,1.506,0,0,0,1.331.374" fill="#eb2b36"/>
    <path id="Path_21" data-name="Path 21" d="M85.852,118.6a4.234,4.234,0,0,1-2.057.113,3.175,3.175,0,0,1-1.626-.89,4.707,4.707,0,0,1-1.117-3.934,3.2,3.2,0,0,1,.9-1.608,3.992,3.992,0,0,1,1.725-.96,3.729,3.729,0,0,1,1.934-.086,3.015,3.015,0,0,1,1.469.844,3.643,3.643,0,0,1,.87,1.567c.054.187.1.367.138.538s.068.325.085.461l-5.606,1.592L82.19,114.9l4.763-1.352-.832.6a2.147,2.147,0,0,0-.787-1.249,1.452,1.452,0,0,0-1.267-.157,1.708,1.708,0,0,0-.848.515,1.6,1.6,0,0,0-.37.917,3.641,3.641,0,0,0,.16,1.313,3.143,3.143,0,0,0,.567,1.168,1.616,1.616,0,0,0,.824.548,2.212,2.212,0,0,0,1.96-.556,1.679,1.679,0,0,0,.4-.828l1.7.155a2.59,2.59,0,0,1-.415,1.135,3.25,3.25,0,0,1-.913.9,4.491,4.491,0,0,1-1.283.585" fill="#eb2b36"/>
    <path id="Path_22" data-name="Path 22" d="M98.93,104.39l-4.649,2.328,1.092,2.181,3.67-1.837.732,1.462-3.67,1.838,1.766,3.526-1.8.9-4.317-8.62L98.2,102.94Z" fill="#eb2b36"/>
    <path id="Path_23" data-name="Path 23" d="M104.053,110.566l-3.956-6.139,1.461-.941.886,1.132a2.518,2.518,0,0,1,.085-1.446,2.335,2.335,0,0,1,.963-1.107,2.1,2.1,0,0,1,.405-.207,1.182,1.182,0,0,1,.345-.085l.714,1.54a1.481,1.481,0,0,0-.348.119,4.126,4.126,0,0,0-.477.273,1.816,1.816,0,0,0-.6.636,1.7,1.7,0,0,0-.217.9,2.06,2.06,0,0,0,.369,1.057l2.049,3.18Z" fill="#eb2b36"/>
    <path id="Path_24" data-name="Path 24" d="M112.372,104.824a4.241,4.241,0,0,1-1.841.922,3.177,3.177,0,0,1-1.846-.169,4.708,4.708,0,0,1-2.59-3.165,3.2,3.2,0,0,1,.188-1.834,3.979,3.979,0,0,1,1.2-1.567,3.713,3.713,0,0,1,1.74-.849,3.013,3.013,0,0,1,1.683.189,3.649,3.649,0,0,1,1.422,1.092q.186.227.34.439c.1.142.191.271.263.389l-4.511,3.691-.878-1.074,3.831-3.136-.524.882a2.153,2.153,0,0,0-1.219-.833,1.449,1.449,0,0,0-1.224.361,1.7,1.7,0,0,0-.574.809,1.6,1.6,0,0,0,.025.989,3.6,3.6,0,0,0,.67,1.141,3.129,3.129,0,0,0,.985.846,1.613,1.613,0,0,0,.974.175,2.215,2.215,0,0,0,1.576-1.291,1.673,1.673,0,0,0,.04-.919l1.621-.534a2.561,2.561,0,0,1,.072,1.206,3.25,3.25,0,0,1-.478,1.193,4.486,4.486,0,0,1-.945,1.047" fill="#eb2b36"/>
    <path id="Path_25" data-name="Path 25" d="M118.809,98.758a5.056,5.056,0,0,1-1.666,1.214,3.764,3.764,0,0,1-1.822.331l-.071-1.641a2.687,2.687,0,0,0,2.458-.886,2.084,2.084,0,0,0,.5-.784.556.556,0,0,0-.157-.614.563.563,0,0,0-.4-.156,1.294,1.294,0,0,0-.635.288l-1.067.762a3.568,3.568,0,0,1-1.811.781,1.872,1.872,0,0,1-1.374-.549,1.964,1.964,0,0,1-.581-1.028,2.523,2.523,0,0,1,.1-1.368,4.264,4.264,0,0,1,.971-1.529,4.856,4.856,0,0,1,1.549-1.163,2.883,2.883,0,0,1,1.613-.246l.042,1.673a2.166,2.166,0,0,0-1.145.083,2.327,2.327,0,0,0-.938.614,2.468,2.468,0,0,0-.413.573.979.979,0,0,0-.121.485.538.538,0,0,0,.184.371.5.5,0,0,0,.433.123,1.841,1.841,0,0,0,.716-.352l1.238-.883a2.784,2.784,0,0,1,1.595-.632,1.8,1.8,0,0,1,1.233.507,2.165,2.165,0,0,1,.661,1.123,2.464,2.464,0,0,1-.114,1.389,4.442,4.442,0,0,1-.977,1.514" fill="#eb2b36"/>
    <path id="Path_26" data-name="Path 26" d="M122.506,94.305l-8.692-5.894,1.123-1.656,3.675,2.492a2.368,2.368,0,0,1-.323-1.384,2.8,2.8,0,0,1,.494-1.341,3.028,3.028,0,0,1,1-.955,2.182,2.182,0,0,1,1.256-.277,2.91,2.91,0,0,1,1.42.548l3.965,2.688L125.3,90.183l-3.481-2.361a1.822,1.822,0,0,0-1.287-.432,1.283,1.283,0,0,0-.821.573,1.761,1.761,0,0,0-.292.782,1.481,1.481,0,0,0,.18.88,2.466,2.466,0,0,0,.837.86l3.192,2.164Z" fill="#eb2b36"/>
    <path id="Path_27" data-name="Path 27" d="M127.449,6.2v.869h-1.468V11.1h-1.032V7.065h-1.474V6.2Z" fill="#eb2b36"/>
    <path id="Path_28" data-name="Path 28" d="M131.3,6.2h1.475V11.1h-.955V7.784c0-.1,0-.229,0-.4s0-.3,0-.4L130.9,11.1h-1l-.924-4.117c0,.093,0,.226,0,.4s0,.305,0,.4V11.1h-.955V6.2h1.492l.893,3.857Z" fill="#eb2b36"/>
  </g>
</svg>
